<?xml version="1.0" standalone="no"?>
<!DOCTYPE svg PUBLIC "-//W3C//DTD SVG 20010904//EN"
 "http://www.w3.org/TR/2001/REC-SVG-20010904/DTD/svg10.dtd">
<svg version="1.0" xmlns="http://www.w3.org/2000/svg"
 width="1000.000000pt" height="1000.000000pt" viewBox="0 0 1000.000000 1000.000000"
 preserveAspectRatio="xMidYMid meet">
<metadata>
Created by potrace 1.11, written by Peter Selinger 2001-2013
</metadata>
<g transform="translate(0.000000,1000.000000) scale(0.100000,-0.100000)"
fill="#000000" stroke="none">
<path d="M800 5000 l0 -5000 4200 0 4200 0 0 5000 0 5000 -4200 0 -4200 0 0
-5000z m8000 800 l0 -3800 -3800 0 -3800 0 0 3800 0 3800 3800 0 3800 0 0
-3800z m0 -4800 l0 -600 -3800 0 -3800 0 0 600 0 600 3800 0 3800 0 0 -600z"/>
<path d="M7138 8083 c-210 -54 -373 -211 -422 -409 -23 -88 -23 -94 -41 -319
-15 -187 -20 -220 -41 -294 -44 -155 -163 -230 -311 -196 -129 30 -223 99
-487 360 -160 159 -153 151 -328 385 -86 116 -217 259 -263 288 -56 35 -104
52 -152 52 -92 0 -149 -49 -274 -235 -219 -326 -286 -330 -634 -42 -66 54
-129 106 -140 115 -60 50 -159 103 -210 113 -32 6 -49 3 -85 -15 -44 -22 -210
-129 -300 -194 -25 -18 -56 -40 -70 -50 -35 -25 -192 -144 -215 -163 -191
-160 -361 -324 -457 -439 -58 -70 -138 -191 -170 -255 -27 -54 -76 -180 -83
-211 -2 -10 -10 -48 -19 -84 -15 -63 -21 -106 -31 -200 -6 -58 -6 -252 0 -310
12 -125 24 -219 31 -250 13 -59 16 -246 4 -337 -6 -53 -29 -159 -51 -234 -21
-75 -40 -147 -43 -160 -35 -190 -40 -244 -40 -384 0 -71 4 -152 8 -180 4 -27
9 -59 11 -71 2 -18 13 -72 31 -154 34 -164 46 -267 59 -504 8 -136 19 -199 45
-240 33 -55 57 -61 214 -59 122 2 279 22 295 38 2 3 -27 19 -65 35 -97 43
-174 83 -183 95 -8 11 -51 183 -77 305 -43 209 -54 429 -28 553 12 60 16 87
30 227 8 76 10 94 18 136 17 92 74 194 108 194 19 0 20 -5 13 -87 -4 -49 -9
-91 -11 -95 -3 -4 -5 -51 -6 -103 0 -81 3 -101 19 -123 29 -40 48 -84 87 -207
43 -136 97 -312 100 -328 2 -7 6 -19 9 -27 3 -8 15 -46 27 -85 50 -161 107
-297 141 -333 17 -19 27 -21 77 -16 31 3 92 -1 136 -9 101 -18 204 -21 239 -8
51 20 34 42 -98 130 -73 48 -131 94 -139 109 -35 69 -168 469 -201 607 -34
138 -39 193 -21 246 27 81 40 151 51 274 3 39 8 88 10 110 2 22 7 68 10 103
23 272 113 417 290 468 117 33 261 1 530 -121 90 -40 211 -72 380 -100 78 -13
288 -6 373 13 116 26 117 26 117 -125 0 -108 -8 -224 -19 -280 -3 -11 -7 -43
-11 -70 -4 -26 -9 -59 -11 -73 -2 -14 -7 -43 -9 -65 -5 -33 -37 -227 -49 -292
-2 -10 -7 -38 -11 -63 -4 -25 -9 -54 -11 -65 -3 -11 -7 -36 -10 -55 -3 -19 -7
-42 -9 -50 -2 -8 -7 -35 -10 -60 -3 -25 -10 -70 -15 -100 -5 -30 -12 -80 -15
-110 -3 -30 -8 -62 -10 -70 -8 -32 -19 -168 -18 -236 1 -93 12 -113 61 -112
20 0 80 -11 132 -25 144 -39 198 -39 257 0 35 22 39 29 30 44 -6 10 -40 30
-76 45 -90 38 -141 71 -141 92 0 15 25 177 35 227 2 11 8 44 14 73 6 29 19 90
30 135 11 45 22 93 25 107 10 56 87 311 121 400 68 181 153 338 176 324 40
-24 88 -209 159 -604 5 -30 16 -91 25 -135 8 -44 17 -96 20 -115 3 -19 10 -57
15 -85 6 -27 20 -97 31 -155 53 -271 94 -394 134 -396 11 -1 54 -7 95 -14 147
-25 296 -18 379 16 30 13 33 16 20 29 -8 8 -52 33 -99 56 -130 64 -175 100
-198 162 -19 49 -69 256 -78 322 -3 17 -9 53 -14 80 -5 28 -12 68 -14 90 -3
22 -8 63 -12 90 -29 222 -37 489 -18 600 7 39 14 79 17 90 8 28 25 105 31 135
46 240 117 441 176 500 27 27 79 26 186 -6 227 -67 276 -77 394 -77 63 -1 129
1 145 5 80 16 149 43 235 92 355 203 549 465 625 845 27 132 37 222 50 451 8
129 15 212 20 238 10 53 64 96 245 193 134 71 172 103 166 138 -8 48 -25 81
-63 119 -66 66 -104 84 -408 192 -173 61 -234 102 -333 224 -16 20 -73 19
-154 -1z"/>
</g>
</svg>
